<?xml version="1.0" standalone="no"?>
<!DOCTYPE svg PUBLIC "-//W3C//DTD SVG 20010904//EN"
 "http://www.w3.org/TR/2001/REC-SVG-20010904/DTD/svg10.dtd">
<svg version="1.0" xmlns="http://www.w3.org/2000/svg"
 width="558.000000pt" height="448.000000pt" viewBox="0 0 558.000000 448.000000"
 preserveAspectRatio="xMidYMid meet">

<g transform="translate(0.000000,448.000000) scale(0.100000,-0.100000)"
fill="#000000" stroke="none">
<path d="M2735 3443 c-460 -25 -864 -305 -1046 -724 -128 -296 -132 -643 -9
-939 109 -264 320 -490 575 -618 280 -139 598 -164 902 -71 92 29 74 32 -23 4
-103 -30 -174 -41 -174 -27 0 6 17 14 38 17 128 21 333 103 439 177 29 20 48
27 55 20 6 -6 -3 -17 -26 -32 -20 -12 -36 -24 -36 -26 0 -11 67 35 134 92 175
149 295 321 367 529 32 94 60 221 58 267 l-2 33 -4 -30 c-29 -224 -106 -416
-239 -595 -82 -110 -214 -237 -234 -225 -5 3 32 45 82 93 110 107 172 187 237
312 73 141 116 289 130 448 6 76 21 98 32 47 4 -20 7 -8 6 35 0 36 -2 53 -4
38 -2 -16 -11 -28 -19 -28 -10 0 -14 14 -14 54 0 130 -59 352 -126 474 -39 71
-39 72 -20 72 18 0 77 -121 115 -235 16 -49 30 -84 30 -76 2 28 -62 200 -100
271 -192 357 -569 612 -939 636 -47 3 -96 6 -110 7 -14 2 -47 1 -75 0z m-54
-28 c0 -5 -34 -16 -76 -23 -42 -7 -118 -26 -168 -42 -54 -17 -95 -26 -101 -20
-12 12 51 37 169 65 152 36 176 39 176 20z m319 0 c162 -29 337 -100 469 -192
119 -83 230 -193 195 -193 -3 0 -36 28 -72 61 -182 167 -384 264 -632 304 -58
9 -138 15 -179 13 -53 -2 -75 1 -78 10 -7 18 189 16 297 -3z m-25 -36 c101
-14 268 -69 363 -121 313 -172 530 -475 593 -828 19 -107 17 -316 -4 -418 -49
-234 -164 -441 -337 -606 -192 -183 -427 -291 -690 -316 -601 -57 -1148 365
-1245 960 -60 372 58 739 322 1003 132 132 262 215 419 270 194 69 358 85 579
56z m-655 -62 c0 -7 -21 -23 -47 -35 -132 -60 -305 -203 -408 -337 -32 -41
-62 -72 -66 -69 -14 8 19 58 97 148 101 116 214 206 343 271 74 39 81 40 81
22z m1437 -374 c37 -50 52 -78 45 -85 -6 -6 -21 6 -42 37 -18 26 -46 62 -62
81 -16 18 -27 38 -23 44 10 16 21 5 82 -77z m-1957 -91 c0 -4 -4 -12 -9 -17
-18 -19 -89 -171 -110 -235 -56 -174 -70 -403 -35 -577 16 -80 13 -114 -6 -83
-34 56 -48 380 -21 515 30 150 135 405 167 405 8 0 14 -4 14 -8z m-117 -977
c13 -37 13 -45 2 -45 -13 0 -35 49 -35 76 0 30 19 12 33 -31z m66 -156 c74
-154 207 -312 358 -425 64 -49 248 -146 312 -165 23 -7 41 -16 41 -21 0 -14
-26 -9 -92 16 -276 104 -507 315 -646 592 -37 73 -42 94 -23 94 3 0 26 -41 50
-91z m846 -634 c57 -11 126 -15 215 -13 99 2 130 0 130 -9 0 -13 -66 -18 -200
-14 -127 3 -276 33 -264 52 3 6 12 8 20 5 8 -3 52 -12 99 -21z"/>
<path d="M2678 3273 c-20 -3 -28 -10 -29 -26 -1 -17 -2 -18 -6 -4 -5 18 -36
22 -92 11 -24 -5 -31 -12 -31 -30 0 -13 7 -27 16 -32 21 -11 33 -112 15 -112
-8 0 -11 -11 -9 -27 3 -26 6 -28 43 -26 84 5 105 22 69 58 -11 11 -13 20 -7
26 13 13 30 -8 35 -41 3 -24 6 -25 58 -22 30 2 59 7 63 12 14 13 -3 50 -22 50
-9 0 -32 15 -50 34 l-33 34 36 28 c22 18 36 38 36 52 0 23 -19 26 -92 15z
m-38 -78 c-7 -9 -15 -13 -18 -10 -3 2 1 11 8 20 7 9 15 13 18 10 3 -2 -1 -11
-8 -20z"/>
<path d="M2990 3213 c-27 -24 -33 -39 -37 -80 -7 -65 7 -90 64 -115 75 -33
159 -3 118 42 -14 15 -26 18 -54 14 -46 -7 -76 20 -65 60 12 48 84 61 84 15 0
-22 47 -46 62 -31 5 5 8 24 6 42 -4 42 -41 71 -100 77 -39 5 -49 2 -78 -24z"/>
<path d="M2298 3154 c-33 -17 -58 -62 -58 -101 0 -40 34 -91 74 -110 33 -15
38 -15 80 1 48 19 86 60 86 95 0 33 -57 30 -70 -4 -14 -36 -58 -44 -82 -15
-24 29 -23 62 2 78 16 9 24 10 39 0 15 -9 25 -9 45 0 31 14 32 26 6 52 -24 24
-82 26 -122 4z"/>
<path d="M3280 3131 c-5 -11 -7 -26 -4 -34 7 -20 -45 -99 -61 -93 -16 6 -35
-13 -35 -33 0 -9 27 -34 61 -56 33 -22 67 -44 75 -50 11 -8 20 -4 34 15 11 14
20 33 20 42 0 19 -29 31 -53 23 -28 -11 -29 15 -2 61 16 27 32 43 40 41 16 -7
35 12 35 33 -1 13 -76 70 -93 70 -4 0 -11 -9 -17 -19z"/>
<path d="M3502 2978 c-7 -7 -12 -19 -12 -27 0 -8 -20 -34 -45 -58 -50 -48 -58
-83 -29 -133 39 -65 110 -77 170 -29 21 17 46 28 56 26 9 -3 24 3 34 14 15 17
14 21 -21 63 -21 26 -40 46 -44 46 -13 0 -31 -24 -31 -41 0 -22 -57 -71 -78
-67 -8 2 -20 11 -26 20 -15 25 48 90 79 82 13 -3 27 1 34 10 11 13 7 23 -24
61 -40 49 -45 51 -63 33z"/>
<path d="M2635 2965 c-353 -77 -605 -407 -582 -762 8 -119 29 -198 78 -298
101 -206 309 -361 539 -401 359 -62 714 154 829 505 58 176 43 382 -40 555
-120 251 -387 418 -668 415 -53 0 -123 -6 -156 -14z m332 -21 c35 -7 104 -34
155 -60 76 -38 108 -62 183 -138 141 -141 202 -280 212 -481 6 -126 -13 -220
-66 -332 -76 -159 -186 -271 -336 -343 -121 -59 -190 -74 -330 -74 -107 1
-130 4 -216 32 -121 40 -223 106 -308 198 -117 128 -176 265 -190 438 -17 217
53 410 209 566 176 179 431 251 687 194z"/>
<path d="M2599 2761 c-95 -60 -146 -157 -136 -260 3 -31 8 -63 12 -72 5 -13
-2 -18 -28 -23 -18 -3 -54 -19 -79 -35 -87 -55 -128 -137 -127 -250 0 -67 2
-67 29 5 15 42 81 109 133 136 31 17 59 22 107 22 70 0 112 -16 155 -60 34
-34 57 -28 66 16 4 19 17 41 28 49 35 23 26 45 -29 64 -93 33 -147 102 -157
202 -7 64 17 144 59 198 35 44 27 47 -33 8z"/>
<path d="M2930 2782 c0 -5 10 -17 21 -28 64 -57 83 -200 39 -288 -29 -57 -85
-102 -147 -119 -24 -6 -43 -17 -43 -23 0 -7 14 -26 30 -42 18 -18 30 -41 30
-56 0 -33 29 -35 56 -5 58 64 189 85 269 42 67 -36 145 -131 145 -178 0 -8 5
-15 11 -15 8 0 10 21 7 70 -10 130 -87 234 -196 263 -36 10 -42 15 -37 32 26
92 8 181 -50 258 -42 55 -135 116 -135 89z"/>
<path d="M2699 2514 c-67 -20 -75 -35 -44 -72 25 -30 27 -30 60 -16 44 18 122
18 158 -1 27 -14 30 -13 53 10 36 36 27 56 -31 76 -60 22 -133 23 -196 3z"/>
<path d="M2503 2201 c10 -86 72 -182 140 -217 26 -14 28 -13 37 11 16 43 12
56 -34 105 -30 32 -47 60 -52 86 -9 53 -20 64 -62 64 l-35 0 6 -49z"/>
<path d="M3014 2242 c-6 -4 -15 -23 -19 -42 -10 -46 -39 -94 -77 -124 -29 -22
-30 -25 -18 -60 6 -19 15 -38 20 -41 12 -8 96 61 119 98 19 31 51 134 51 164
0 14 -57 18 -76 5z"/>
<path d="M2717 2183 c-4 -6 -1 -27 4 -49 46 -164 -103 -320 -287 -301 -68 7
-61 -9 19 -44 38 -17 70 -23 122 -22 82 0 127 17 184 68 33 30 42 34 47 21 10
-25 97 -73 155 -85 38 -8 70 -8 106 -1 54 10 133 44 133 58 0 4 -35 7 -77 7
-65 0 -87 5 -129 27 -56 29 -99 74 -121 125 -16 38 -17 121 -3 159 13 32 -3
48 -35 38 -25 -8 -53 -8 -86 1 -15 4 -29 3 -32 -2z"/>
<path d="M2010 2925 c-37 -37 -41 -46 -30 -60 7 -8 20 -15 30 -15 19 0 61 -90
57 -124 -1 -10 6 -23 15 -30 15 -9 25 -4 59 31 44 44 47 70 9 80 -20 5 -20 7
-4 24 17 19 17 18 28 -3 17 -34 38 -31 75 14 41 47 35 71 -20 74 -19 1 -63 13
-98 28 -36 14 -67 26 -71 26 -3 0 -26 -20 -50 -45z"/>
<path d="M1846 2687 c-28 -67 -28 -75 -6 -87 16 -9 25 -8 36 1 20 17 29 3 18
-28 -11 -33 -34 -42 -34 -14 0 12 -7 22 -15 23 -8 0 -20 1 -26 2 -6 1 -20 -21
-30 -49 -17 -44 -17 -51 -4 -65 12 -11 19 -12 33 -4 23 15 96 -13 118 -44 8
-12 22 -22 30 -22 15 0 53 72 54 101 0 21 -39 32 -57 17 -21 -17 -27 -2 -13
32 13 32 30 40 30 15 0 -20 38 -39 53 -26 17 13 40 97 32 111 -5 7 -20 9 -40
6 -42 -8 -111 18 -118 45 -9 32 -45 24 -61 -14z"/>
<path d="M3704 2652 c-7 -24 -104 -58 -115 -40 -6 9 -14 9 -33 0 l-25 -11 26
-77 c14 -42 34 -85 44 -95 25 -25 71 -24 94 1 10 11 28 20 39 20 32 0 66 28
66 54 0 12 -11 53 -23 92 -19 55 -28 70 -46 72 -15 3 -24 -2 -27 -16z m29
-106 c6 -16 -2 -28 -14 -20 -12 7 -11 34 0 34 5 0 11 -6 14 -14z m-73 -48 c0
-10 -6 -18 -14 -18 -17 0 -28 48 -12 53 13 5 26 -12 26 -35z"/>
<path d="M1905 2074 c-11 -8 -33 -13 -50 -12 -28 3 -30 1 -29 -27 4 -83 42
-147 60 -100 4 8 18 15 34 15 45 0 55 21 41 85 -13 57 -23 64 -56 39z"/>
<path d="M3640 2072 c0 -16 9 -21 46 -27 26 -3 53 -9 60 -12 13 -5 32 23 22
33 -6 5 -38 13 -90 21 -33 5 -38 3 -38 -15z"/>
<path d="M3644 2032 c-15 -9 -34 -47 -34 -66 0 -22 31 -48 51 -43 11 3 19 1
19 -4 0 -16 36 -10 53 9 21 23 22 75 2 92 -8 6 -23 9 -35 5 -11 -4 -20 -2 -20
4 0 13 -20 14 -36 3z"/>
<path d="M1937 1919 c-12 -13 -25 -17 -41 -13 -13 3 -27 1 -30 -4 -7 -12 27
-97 43 -106 17 -11 51 12 45 29 -7 16 11 21 21 5 3 -5 12 -7 20 -3 20 7 10
-21 -22 -63 -13 -17 -23 -37 -23 -45 0 -20 20 -39 42 -39 14 0 17 -5 13 -23
-9 -36 15 -50 67 -41 39 7 68 7 76 -1 8 -8 -14 -38 -34 -46 -41 -15 -35 -27
57 -106 22 -18 51 -6 44 18 -4 11 -2 19 4 19 14 0 41 29 41 46 0 17 -68 94
-84 94 -6 0 -19 14 -28 30 -9 17 -24 30 -33 30 -9 0 -13 4 -10 10 3 5 1 19 -5
31 -9 16 -18 19 -38 15 -22 -5 -24 -4 -9 4 22 14 22 20 -7 52 -14 14 -23 28
-20 31 2 2 -4 25 -15 51 -22 51 -44 58 -74 25z"/>
<path d="M3593 1918 c-5 -7 -16 -30 -26 -50 -18 -41 -12 -51 31 -53 13 0 30
-8 37 -18 21 -29 42 -19 66 29 21 45 22 47 4 60 -22 17 -32 17 -40 4 -10 -16
-28 -12 -21 5 3 8 -3 19 -14 25 -24 13 -26 13 -37 -2z"/>
<path d="M3510 1768 c-11 -12 -20 -27 -20 -32 0 -6 -23 -35 -50 -63 -28 -29
-50 -60 -50 -68 0 -8 -7 -15 -16 -15 -29 0 -94 -53 -91 -75 1 -11 7 -19 14
-18 6 1 19 -7 28 -17 10 -11 15 -20 11 -20 -4 0 -2 -9 4 -20 14 -26 20 -25 60
10 18 16 43 36 54 44 18 11 19 16 8 29 -8 9 -21 13 -30 10 -9 -3 -14 -2 -9 2
4 5 0 19 -9 33 -9 13 -12 23 -8 20 5 -2 26 -13 46 -23 30 -16 41 -17 63 -7 47
22 52 89 9 115 -21 12 -17 37 6 37 11 0 27 -11 36 -25 23 -36 38 -31 69 21 21
36 24 48 15 60 -18 20 -41 17 -47 -6 -8 -29 -33 -22 -46 13 -9 23 -22 22 -47
-5z m-16 -137 c12 -13 14 -21 6 -26 -13 -8 -40 12 -40 31 0 20 14 17 34 -5z"/>
<path d="M2269 1528 c-1 -7 -1 -18 0 -25 1 -7 -10 -20 -24 -29 -29 -19 -32
-41 -7 -60 32 -25 59 -15 53 20 -2 11 19 36 30 36 5 0 9 -7 9 -15 0 -8 5 -15
10 -15 17 0 11 -18 -12 -40 -19 -18 -20 -22 -7 -35 8 -8 25 -16 39 -17 20 -2
25 2 30 26 4 24 10 30 33 30 30 2 34 -11 12 -40 -24 -31 -18 -52 16 -59 33 -7
43 -2 45 23 3 50 5 53 22 50 20 -4 18 -35 -6 -61 -20 -23 -5 -39 40 -42 18 -2
41 -6 50 -10 26 -10 53 -1 52 18 -1 9 3 17 8 17 6 0 8 9 5 20 -3 11 -2 20 3
20 13 0 21 33 11 43 -6 6 -25 11 -43 12 -18 2 -46 8 -61 14 -16 6 -33 9 -38 5
-5 -3 -9 -1 -9 4 0 6 -12 13 -27 17 -39 9 -111 44 -160 77 -44 30 -72 36 -74
16z"/>
<path d="M3205 1487 c-11 -6 -31 -18 -45 -27 -14 -9 -54 -24 -90 -35 -36 -10
-69 -21 -74 -23 -5 -3 -25 -6 -45 -8 -67 -6 -91 -15 -91 -33 0 -23 19 -41 37
-34 11 4 14 -3 11 -33 -3 -38 -2 -39 30 -37 42 2 49 9 34 33 -16 26 -15 50 2
50 8 0 17 6 19 13 9 20 27 -14 27 -50 0 -36 11 -40 51 -19 14 7 42 16 62 20
44 8 52 19 31 40 -8 9 -13 16 -9 16 3 0 1 9 -6 21 -7 14 -8 24 -1 31 11 11 35
-24 37 -54 1 -10 5 -21 8 -25 7 -6 79 28 100 47 13 11 -11 51 -28 48 -15 -3
-17 4 -9 27 6 15 -12 46 -25 44 -3 0 -15 -5 -26 -12z"/>
<path d="M2700 1360 c-27 -27 -25 -66 5 -95 28 -29 61 -32 94 -9 19 13 22 23
18 55 -2 21 -10 46 -17 54 -18 22 -76 19 -100 -5z m64 -38 c-6 -4 -14 -14 -17
-22 -4 -10 -6 -8 -6 8 -1 15 5 22 17 22 10 0 13 -3 6 -8z"/>
<path d="M3967 2470 c3 -25 7 -47 9 -49 8 -9 2 55 -6 74 -6 13 -7 5 -3 -25z"/>
<path d="M3982 2370 c0 -19 2 -27 5 -17 2 9 2 25 0 35 -3 9 -5 1 -5 -18z"/>
<path d="M3345 1180 c-38 -22 -66 -40 -61 -40 11 0 136 69 136 75 0 7 1 8 -75
-35z"/>
<path d="M3240 1130 c-8 -5 -10 -10 -5 -10 6 0 17 5 25 10 8 5 11 10 5 10 -5
0 -17 -5 -25 -10z"/>
</g>
</svg>
